<svg width="47" height="47" viewBox="0 0 47 47" fill="none" xmlns="http://www.w3.org/2000/svg">
<rect x="0.40625" y="0.716797" width="46" height="46" rx="23" fill="black"/>
<path d="M29.4435 22.7313C29.413 20.8867 30.2099 19.4511 31.8316 18.4237C30.9173 17.0941 29.5686 16.3467 27.785 16.1797C27.1506 16.12 26.3398 16.2699 25.3531 16.6331C24.2914 17.0268 23.6939 17.2223 23.5618 17.2223C23.2818 17.2223 22.744 17.0573 21.9465 16.7239C21.1509 16.3912 20.4727 16.2255 19.9127 16.2255C18.9691 16.2407 18.0916 16.5017 17.2814 17.0077C16.4705 17.5144 15.8222 18.2059 15.3365 19.0815C14.7155 20.1692 14.4062 21.469 14.4062 22.9802C14.4062 24.3403 14.6342 25.6998 15.0914 27.0611C15.5187 28.3609 16.0648 29.5019 16.7277 30.483C17.3169 31.3751 17.8344 32.0247 18.2757 32.4336C18.9101 33.0679 19.5584 33.3708 20.2225 33.3397C20.6499 33.3244 21.2093 33.1657 21.9027 32.8628C22.551 32.5771 23.1999 32.4336 23.8488 32.4336C24.4527 32.4336 25.0787 32.5764 25.7283 32.8628C26.4503 33.1657 27.0402 33.3168 27.4973 33.3168C28.1755 33.287 28.8092 32.9923 29.3997 32.4342C29.6054 32.252 29.8302 32.0031 30.0734 31.6856C30.3166 31.3675 30.5858 30.9897 30.8811 30.5522C31.0868 30.2353 31.2893 29.895 31.4894 29.5318C31.6887 29.1692 31.8691 28.7844 32.031 28.3755C32.104 28.2092 32.17 28.0396 32.2297 27.8656C32.2881 27.6923 32.3472 27.5151 32.4062 27.3335C31.8608 27.0922 31.3668 26.7506 30.9249 26.3125C29.9534 25.3467 29.4594 24.1524 29.4441 22.7319L29.4435 22.7313Z" fill="white"/>
<path d="M26.6565 14.3444C27.4381 13.3621 27.8293 12.3042 27.8293 11.1702V10.9441C27.8293 10.8679 27.8217 10.793 27.8071 10.7168C27.2616 10.7473 26.6832 10.9213 26.0711 11.2381C25.4596 11.5562 24.9548 11.9569 24.556 12.4401C23.7604 13.3925 23.3623 14.4123 23.3623 15.5006V15.7152C23.3623 15.7838 23.3699 15.8556 23.3845 15.9318C24.6087 16.0524 25.6996 15.5235 26.6571 14.345L26.6565 14.3444Z" fill="white"/>
</svg>
