<svg width="24" height="25" viewBox="0 0 24 25" fill="none" xmlns="http://www.w3.org/2000/svg">
<path d="M23 19.2695C23 19.8 22.7893 20.3087 22.4142 20.6837C22.0391 21.0588 21.5304 21.2695 21 21.2695H3C2.46957 21.2695 1.96086 21.0588 1.58579 20.6837C1.21071 20.3087 1 19.8 1 19.2695V8.26953C1 7.7391 1.21071 7.23039 1.58579 6.85532C1.96086 6.48024 2.46957 6.26953 3 6.26953H7L9 3.26953H15L17 6.26953H21C21.5304 6.26953 22.0391 6.48024 22.4142 6.85532C22.7893 7.23039 23 7.7391 23 8.26953V19.2695Z" stroke="white" stroke-linecap="round" stroke-linejoin="round"/>
<path d="M12 17.2695C14.2091 17.2695 16 15.4787 16 13.2695C16 11.0604 14.2091 9.26953 12 9.26953C9.79086 9.26953 8 11.0604 8 13.2695C8 15.4787 9.79086 17.2695 12 17.2695Z" stroke="white" stroke-linecap="round" stroke-linejoin="round"/>
</svg>
