<svg width="300" height="46" viewBox="0 0 300 46" fill="none" xmlns="http://www.w3.org/2000/svg">
<rect y="0.923828" width="300" height="45" rx="10" fill="url(#paint0_linear_5014_19921)"/>
<path d="M115.908 16.877V29.0586H114.828V16.877H115.908ZM109.441 17.8203C111.246 17.834 112.545 19.4746 112.545 22.0586C112.545 24.6426 111.246 26.2832 109.441 26.2832C107.623 26.2832 106.338 24.6426 106.338 22.0586C106.338 19.4746 107.623 17.834 109.441 17.8203ZM109.441 18.7773C108.225 18.791 107.377 20.0762 107.377 22.0586C107.377 24.041 108.225 25.3262 109.441 25.3262C110.658 25.3262 111.506 24.041 111.506 22.0586C111.506 20.0762 110.658 18.791 109.441 18.7773ZM123.086 18.2988V21.4707H124.932V17.1367H125.957V28.416H124.932V22.3594H123.086V25.7637H118.438V18.2988H123.086ZM119.449 19.1602V24.9023H122.074V19.1602H119.449ZM128.404 16.877V29.0312H127.365V16.877H128.404ZM133.531 17.3281C135.35 17.3418 136.676 18.4355 136.676 20.0215C136.676 21.6074 135.35 22.7012 133.531 22.7012C131.686 22.7012 130.373 21.6074 130.373 20.0215C130.373 18.4355 131.686 17.3418 133.531 17.3281ZM133.531 18.2305C132.314 18.2305 131.412 18.9688 131.426 20.0215C131.412 21.0879 132.314 21.8262 133.531 21.8262C134.734 21.8262 135.637 21.0879 135.637 20.0215C135.637 18.9688 134.734 18.2305 133.531 18.2305ZM140.121 16.877V23.125H139.055V16.877H140.121ZM140.121 23.7129V26.6387H133.299V28.0059H140.559V28.8672H132.246V25.832H139.055V24.5742H132.219V23.7129H140.121ZM153.314 26.625V27.5273H142.186V26.625H147.189V24.3281H143.58V20.582H150.854V18.668H143.553V17.7793H151.906V21.457H144.646V23.4395H152.193V24.3281H148.242V26.625H153.314ZM168.928 26.625V27.5273H157.799V26.625H162.803V24.3281H159.193V20.582H166.467V18.668H159.166V17.7793H167.52V21.457H160.26V23.4395H167.807V24.3281H163.855V26.625H168.928ZM179.482 18.1758V19.3926C179.482 20.9238 179.482 22.6602 179.031 25.2988L177.938 25.1895C178.43 22.7012 178.43 20.8828 178.43 19.3926V19.0645H171.102V18.1758H179.482ZM180.973 26.3516V27.2402H169.898V26.3516H180.973ZM192.033 16.8906V25.7773H190.967V16.8906H192.033ZM192.416 27.8691V28.7715H184.186V24.875H185.252V27.8691H192.416ZM185.471 17.7383C187.289 17.7383 188.656 18.9688 188.656 20.7188C188.656 22.4961 187.289 23.7129 185.471 23.7129C183.652 23.7129 182.285 22.4961 182.285 20.7188C182.285 18.9688 183.652 17.7383 185.471 17.7383ZM185.471 18.6816C184.24 18.6816 183.324 19.5293 183.338 20.7188C183.324 21.9355 184.24 22.7695 185.471 22.7695C186.674 22.7695 187.604 21.9355 187.604 20.7188C187.604 19.5293 186.674 18.6816 185.471 18.6816Z" fill="white"/>
<path d="M27 15.9238H43C44.1 15.9238 45 16.8238 45 17.9238V29.9238C45 31.0238 44.1 31.9238 43 31.9238H27C25.9 31.9238 25 31.0238 25 29.9238V17.9238C25 16.8238 25.9 15.9238 27 15.9238Z" stroke="white" stroke-width="2" stroke-linecap="round" stroke-linejoin="round"/>
<path d="M45 17.9238L35 24.9238L25 17.9238" stroke="white" stroke-width="2" stroke-linecap="round" stroke-linejoin="round"/>
<defs>
<linearGradient id="paint0_linear_5014_19921" x1="-1.11759e-06" y1="23.4238" x2="324.312" y2="23.4238" gradientUnits="userSpaceOnUse">
<stop offset="0.229167" stop-color="#FF633E"/>
<stop offset="1" stop-color="#FF985E"/>
</linearGradient>
</defs>
</svg>
