<svg width="15" height="22" viewBox="0 0 15 22" fill="none" xmlns="http://www.w3.org/2000/svg">
<path d="M13.125 10.1924H1.875" stroke="#222222" stroke-width="1.5" stroke-linecap="round" stroke-linejoin="round"/>
<path d="M13.125 5.34613H1.875" stroke="#222222" stroke-width="1.5" stroke-linecap="round" stroke-linejoin="round"/>
<path d="M13.125 15.0383H1.875" stroke="#222222" stroke-width="1.5" stroke-linecap="round" stroke-linejoin="round"/>
<path d="M5.81561 5.34616C5.81561 5.97298 5.32186 6.46154 4.73666 6.46154C4.15147 6.46154 3.65771 5.97298 3.65771 5.34616C3.65771 4.71933 4.15147 4.23077 4.73666 4.23077C5.32186 4.23077 5.81561 4.71933 5.81561 5.34616Z" fill="white" stroke="#222222"/>
<path d="M8.18426 10.1923C8.18426 10.8191 7.69051 11.3077 7.10531 11.3077C6.52012 11.3077 6.02637 10.8191 6.02637 10.1923C6.02637 9.56546 6.52012 9.0769 7.10531 9.0769C7.69051 9.0769 8.18426 9.56546 8.18426 10.1923Z" fill="white" stroke="#222222"/>
<path d="M11.342 15.0385C11.342 15.6653 10.8482 16.1539 10.263 16.1539C9.67784 16.1539 9.18408 15.6653 9.18408 15.0385C9.18408 14.4117 9.67784 13.9231 10.263 13.9231C10.8482 13.9231 11.342 14.4117 11.342 15.0385Z" fill="white" stroke="#222222"/>
</svg>
