<svg width="23" height="20" viewBox="0 0 23 20" fill="none" xmlns="http://www.w3.org/2000/svg">
<path d="M20.2913 3.13871C19.7805 2.65882 19.1741 2.27814 18.5066 2.01841C17.8392 1.75868 17.1238 1.625 16.4013 1.625C15.6788 1.625 14.9634 1.75868 14.2959 2.01841C13.6285 2.27814 13.022 2.65882 12.5113 3.13871L11.4513 4.13419L10.3913 3.13871C9.3596 2.16982 7.96032 1.6255 6.50129 1.6255C5.04226 1.6255 3.64298 2.16982 2.61129 3.13871C1.5796 4.10761 1 5.42171 1 6.79193C1 8.16215 1.5796 9.47626 2.61129 10.4451L3.67129 11.4406L11.4513 18.7471L19.2313 11.4406L20.2913 10.4451C20.8023 9.96548 21.2076 9.39597 21.4842 8.76913C21.7608 8.1423 21.9031 7.47044 21.9031 6.79193C21.9031 6.11342 21.7608 5.44156 21.4842 4.81473C21.2076 4.1879 20.8023 3.61838 20.2913 3.13871Z" fill="#222222" stroke="#222222" stroke-width="2" stroke-linecap="round" stroke-linejoin="round"/>
</svg>
