<svg width="12" height="9" viewBox="0 0 12 9" fill="none" xmlns="http://www.w3.org/2000/svg">
<path d="M10.6518 0.795665C10.383 0.543416 10.0639 0.343314 9.71265 0.206791C9.36141 0.0702686 8.98493 0 8.60473 0C8.22453 0 7.84806 0.0702686 7.49682 0.206791C7.14558 0.343314 6.82645 0.543416 6.55767 0.795665L5.99986 1.31893L5.44205 0.795665C4.89913 0.286378 4.16278 0.000263981 3.39498 0.000263986C2.62719 0.000263992 1.89084 0.286378 1.34792 0.795665C0.805006 1.30495 0.5 1.99569 0.5 2.71593C0.5 3.43617 0.805006 4.12692 1.34792 4.6362L1.90573 5.15946L5.99986 9L10.094 5.15946L10.6518 4.6362C10.9207 4.38407 11.134 4.08471 11.2796 3.75523C11.4251 3.42574 11.5 3.07258 11.5 2.71593C11.5 2.35928 11.4251 2.00613 11.2796 1.67664C11.134 1.34716 10.9207 1.0478 10.6518 0.795665Z" fill="#FF633E"/>
</svg>
