<svg width="15" height="15" viewBox="0 0 15 15" fill="none" xmlns="http://www.w3.org/2000/svg">
<path d="M10.75 1H4.25C2.45507 1 1 2.45507 1 4.25V10.75C1 12.5449 2.45507 14 4.25 14H10.75C12.5449 14 14 12.5449 14 10.75V4.25C14 2.45507 12.5449 1 10.75 1Z" stroke="#FF633E" stroke-linecap="round" stroke-linejoin="round"/>
<path d="M11 4H11.01" stroke="#FF633E" stroke-linecap="round" stroke-linejoin="round"/>
<path d="M9.97296 7.13329C10.0501 7.65344 9.96124 8.18468 9.71906 8.65142C9.47687 9.11817 9.09367 9.49667 8.62397 9.73308C8.15427 9.9695 7.62199 10.0518 7.10283 9.96825C6.58366 9.88471 6.10406 9.63959 5.73223 9.26776C5.36041 8.89594 5.11529 8.41634 5.03175 7.89717C4.94821 7.37801 5.0305 6.84573 5.26692 6.37603C5.50333 5.90633 5.88183 5.52313 6.34858 5.28094C6.81532 5.03876 7.34656 4.94991 7.86671 5.02704C8.39728 5.10572 8.88849 5.35296 9.26777 5.73223C9.64704 6.11151 9.89428 6.60272 9.97296 7.13329Z" stroke="#FF633E" stroke-linecap="round" stroke-linejoin="round"/>
</svg>
