<svg width="300" height="46" viewBox="0 0 300 46" fill="none" xmlns="http://www.w3.org/2000/svg">
<rect y="0.103516" width="300" height="45" rx="10" fill="#FEE500"/>
<path d="M34.001 15.1035C28.4766 15.1035 24 18.6799 24 23.0941C24 25.9658 25.8968 28.4853 28.7441 29.8925C28.5354 30.6811 27.9862 32.752 27.8768 33.1944C27.741 33.7434 28.0754 33.7372 28.2943 33.5898C28.4665 33.473 31.0341 31.7073 32.1427 30.9474C32.7446 31.0375 33.3647 31.0846 33.999 31.0846C39.5213 31.0846 44 27.5082 44 23.0941C44 18.6799 39.5234 15.1035 34.001 15.1035Z" fill="black"/>
<path d="M116.739 19.1143C116.726 22.6279 115.536 25.8408 111.161 27.9873L110.56 27.167C112.85 26.0596 114.224 24.6514 114.962 23.0107L110.792 23.4072L110.614 22.4639L115.29 22.1494C115.502 21.4658 115.625 20.748 115.673 20.0029H111.229V19.1143H116.739ZM119.843 17.8428V22.792H121.812V23.6943H119.843V29.9971H118.776V17.8428H119.843ZM128.839 19.1143C128.825 22.6279 127.636 25.8408 123.261 27.9873L122.659 27.167C124.949 26.0596 126.323 24.6514 127.062 23.0107L122.892 23.4072L122.714 22.4639L127.39 22.1494C127.602 21.4658 127.725 20.748 127.772 20.0029H123.329V19.1143H128.839ZM131.942 17.8428V22.792H133.911V23.6943H131.942V29.9971H130.876V17.8428H131.942ZM140.173 18.6357C142.757 18.6494 144.616 19.9072 144.616 21.8213C144.616 23.6328 143.003 24.8359 140.692 24.9795V27.5361H145.765V28.4385H134.636V27.5361H139.64V24.9795C137.336 24.8291 135.729 23.626 135.729 21.8213C135.729 19.9072 137.589 18.6494 140.173 18.6357ZM140.173 19.5244C138.204 19.5244 136.769 20.4541 136.769 21.8213C136.769 23.2295 138.204 24.1318 140.173 24.1455C142.142 24.1318 143.577 23.2295 143.577 21.8213C143.577 20.4541 142.142 19.5244 140.173 19.5244ZM161.378 27.5908V28.4932H150.249V27.5908H155.253V25.2939H151.644V21.5479H158.917V19.6338H151.616V18.7451H159.97V22.4229H152.71V24.4053H160.257V25.2939H156.306V27.5908H161.378ZM171.933 19.1416V20.3584C171.933 21.8896 171.933 23.626 171.481 26.2646L170.388 26.1553C170.88 23.667 170.88 21.8486 170.88 20.3584V20.0303H163.552V19.1416H171.933ZM173.423 27.3174V28.2061H162.349V27.3174H173.423ZM184.483 17.8564V26.7432H183.417V17.8564H184.483ZM184.866 28.835V29.7373H176.636V25.8408H177.702V28.835H184.866ZM177.921 18.7041C179.739 18.7041 181.106 19.9346 181.106 21.6846C181.106 23.4619 179.739 24.6787 177.921 24.6787C176.103 24.6787 174.735 23.4619 174.735 21.6846C174.735 19.9346 176.103 18.7041 177.921 18.7041ZM177.921 19.6475C176.69 19.6475 175.774 20.4951 175.788 21.6846C175.774 22.9014 176.69 23.7354 177.921 23.7354C179.124 23.7354 180.054 22.9014 180.054 21.6846C180.054 20.4951 179.124 19.6475 177.921 19.6475Z" fill="black"/>
</svg>
