<svg width="15" height="21" viewBox="0 0 15 21" fill="none" xmlns="http://www.w3.org/2000/svg">
<rect width="15" height="21" fill="#343434"/>
<path d="M-3363 -9855C-3363 -9856.1 -3362.1 -9857 -3361 -9857H10179C10180.1 -9857 10181 -9856.1 10181 -9855V16214C10181 16215.1 10180.1 16216 10179 16216H-3361C-3362.1 16216 -3363 16215.1 -3363 16214V-9855Z" fill="black"/>
<path d="M-3361 -9856H10179V-9858H-3361V-9856ZM10180 -9855V16214H10182V-9855H10180ZM10179 16215H-3361V16217H10179V16215ZM-3362 16214V-9855H-3364V16214H-3362ZM-3361 16215C-3361.55 16215 -3362 16214.6 -3362 16214H-3364C-3364 16215.7 -3362.66 16217 -3361 16217V16215ZM10180 16214C10180 16214.6 10179.6 16215 10179 16215V16217C10180.7 16217 10182 16215.7 10182 16214H10180ZM10179 -9856C10179.6 -9856 10180 -9855.55 10180 -9855H10182C10182 -9856.66 10180.7 -9858 10179 -9858V-9856ZM-3361 -9858C-3362.66 -9858 -3364 -9856.66 -3364 -9855H-3362C-3362 -9855.55 -3361.55 -9856 -3361 -9856V-9858Z" fill="white" fill-opacity="0.1"/>
<g clip-path="url(#clip0_6689_1009)">
<rect width="375" height="812" transform="translate(-44 -295.271)" fill="#F4F6F8"/>
<path d="M-20 -67.2715C-20 -72.7943 -15.5228 -77.2715 -10 -77.2715H297C302.523 -77.2715 307 -72.7943 307 -67.2715V54.7285C307 60.2514 302.523 64.7285 297 64.7285H-9.99999C-15.5228 64.7285 -20 60.2514 -20 54.7285V-67.2715Z" fill="white"/>
<path d="M7.49987 10.2285C8.00978 10.2285 8.44645 10.0325 8.80988 9.64052C9.17269 9.24918 9.35409 8.77852 9.35409 8.22852C9.35409 7.67852 9.17269 7.20752 8.80988 6.81552C8.44645 6.42418 8.00978 6.22852 7.49987 6.22852C6.98996 6.22852 6.55361 6.42418 6.1908 6.81552C5.82737 7.20752 5.64566 7.67852 5.64566 8.22852C5.64566 8.77852 5.82737 9.24918 6.1908 9.64052C6.55361 10.0325 6.98996 10.2285 7.49987 10.2285ZM7.49987 20.2285C5.01213 17.9452 3.15421 15.8242 1.9261 13.8655C0.697371 11.9075 0.0830078 10.0952 0.0830078 8.42852C0.0830078 5.92852 0.828712 3.93685 2.32012 2.45352C3.81091 0.970182 5.5375 0.228516 7.49987 0.228516C9.46225 0.228516 11.1888 0.970182 12.6796 2.45352C14.171 3.93685 14.9167 5.92852 14.9167 8.42852C14.9167 10.0952 14.3027 11.9075 13.0746 13.8655C11.8458 15.8242 9.98762 17.9452 7.49987 20.2285Z" fill="#FF633E"/>
</g>
<defs>
<clipPath id="clip0_6689_1009">
<rect width="375" height="812" fill="white" transform="translate(-44 -295.271)"/>
</clipPath>
</defs>
</svg>
