<svg width="15" height="21" viewBox="0 0 15 21" fill="none" xmlns="http://www.w3.org/2000/svg">
<rect width="15" height="21" fill="#343434"/>
<path d="M-1043 -9525C-1043 -9526.1 -1042.1 -9527 -1041 -9527H12499C12500.1 -9527 12501 -9526.1 12501 -9525V16544C12501 16545.1 12500.1 16546 12499 16546H-1041C-1042.1 16546 -1043 16545.1 -1043 16544V-9525Z" fill="black"/>
<path d="M-1041 -9526H12499V-9528H-1041V-9526ZM12500 -9525V16544H12502V-9525H12500ZM12499 16545H-1041V16547H12499V16545ZM-1042 16544V-9525H-1044V16544H-1042ZM-1041 16545C-1041.55 16545 -1042 16544.6 -1042 16544H-1044C-1044 16545.7 -1042.66 16547 -1041 16547V16545ZM12500 16544C12500 16544.6 12499.6 16545 12499 16545V16547C12500.7 16547 12502 16545.7 12502 16544H12500ZM12499 -9526C12499.6 -9526 12500 -9525.55 12500 -9525H12502C12502 -9526.66 12500.7 -9528 12499 -9528V-9526ZM-1041 -9528C-1042.66 -9528 -1044 -9526.66 -1044 -9525H-1042C-1042 -9525.55 -1041.55 -9526 -1041 -9526V-9528Z" fill="white" fill-opacity="0.1"/>
<g clip-path="url(#clip0_3252_2834)">
<rect x="-43" y="-366" width="375" height="1148" fill="white"/>
<path d="M-20 -67C-20 -72.5228 -15.5228 -77 -10 -77H297C302.523 -77 307 -72.5228 307 -67V55C307 60.5228 302.523 65 297 65H-9.99999C-15.5228 65 -20 60.5228 -20 55V-67Z" fill="#222222"/>
<path d="M7.49987 10.5C8.00978 10.5 8.44645 10.304 8.80988 9.912C9.17269 9.52067 9.35409 9.05 9.35409 8.5C9.35409 7.95 9.17269 7.479 8.80988 7.087C8.44645 6.69567 8.00978 6.5 7.49987 6.5C6.98996 6.5 6.55361 6.69567 6.1908 7.087C5.82737 7.479 5.64566 7.95 5.64566 8.5C5.64566 9.05 5.82737 9.52067 6.1908 9.912C6.55361 10.304 6.98996 10.5 7.49987 10.5ZM7.49987 20.5C5.01213 18.2167 3.15421 16.0957 1.9261 14.137C0.697371 12.179 0.0830078 10.3667 0.0830078 8.7C0.0830078 6.2 0.828712 4.20833 2.32012 2.725C3.81091 1.24167 5.5375 0.5 7.49987 0.5C9.46225 0.5 11.1888 1.24167 12.6796 2.725C14.171 4.20833 14.9167 6.2 14.9167 8.7C14.9167 10.3667 14.3027 12.179 13.0746 14.137C11.8458 16.0957 9.98762 18.2167 7.49987 20.5Z" fill="#FF633E"/>
</g>
<rect x="-38" y="-361" width="365" height="1138" stroke="#FFEC3E" stroke-width="10"/>
<defs>
<clipPath id="clip0_3252_2834">
<rect x="-43" y="-366" width="375" height="1148" fill="white"/>
</clipPath>
</defs>
</svg>
