<svg width="30" height="30" viewBox="0 0 30 30" fill="none" xmlns="http://www.w3.org/2000/svg">
<rect x="0.5" y="0.886719" width="29" height="29" rx="14.5" fill="#FFF0E2"/>
<path d="M19.2257 12.6059V14.4655H20.9159V12.6059H19.2257ZM10.7743 14.4655V12.6059H9.08406V14.4655H10.7743ZM9.6503 17.1813L10.6171 15.1567L9.08237 14.4721L8.11554 16.4975L9.6503 17.1813ZM19.3829 15.1575L20.3497 17.183L21.8845 16.4967L20.9176 14.4721L19.3829 15.1575ZM19.0533 19.1414H15V20.7755H19.0524L19.0533 19.1414ZM15 19.1414L10.9476 19.1422V20.7763L15 20.7755V19.1414ZM20.3497 17.183C20.5221 17.5449 20.637 17.7851 20.7148 17.973C20.7925 18.161 20.8044 18.232 20.8061 18.2541L22.4904 18.1127C22.4598 17.8559 22.3903 17.6049 22.2842 17.3676C22.1586 17.0743 22.0253 16.7834 21.8845 16.4967L20.3497 17.183ZM19.0524 20.7755C19.4454 20.7755 19.7742 20.7763 20.037 20.7632C20.3042 20.7568 20.5691 20.7125 20.823 20.6317L20.2508 19.094C20.2288 19.1022 20.1579 19.121 19.9483 19.1316C19.7395 19.1422 19.464 19.1422 19.0524 19.1422V20.7755ZM20.8061 18.2541C20.8223 18.4337 20.7767 18.6135 20.6763 18.7654C20.5758 18.9173 20.4263 19.0329 20.2508 19.094L20.8238 20.6308C21.3502 20.4476 21.799 20.1019 22.1004 19.6463C22.4019 19.1907 22.539 18.6515 22.4904 18.1127L20.8061 18.2541ZM8.11554 16.4975C7.9747 16.7842 7.8414 17.0743 7.71579 17.3676C7.60967 17.6049 7.54019 17.8559 7.50958 18.1127L9.19393 18.2541C9.19562 18.232 9.20745 18.161 9.28521 17.973C9.36296 17.7851 9.4779 17.5433 9.6503 17.1813L8.11554 16.4975ZM10.9476 19.1422C10.5368 19.1422 10.2605 19.1422 10.0517 19.1316C9.84215 19.121 9.77116 19.1014 9.74919 19.094L9.17618 20.6308C9.43226 20.7199 9.70017 20.7493 9.96216 20.7624C10.2258 20.7763 10.5538 20.7763 10.9476 20.7763V19.1422ZM7.50958 18.1127C7.461 18.6515 7.59811 19.1907 7.89956 19.6463C8.201 20.1019 8.64985 20.4476 9.17618 20.6308L9.74919 19.094C9.57374 19.0329 9.42415 18.9173 9.32372 18.7654C9.22329 18.6135 9.17765 18.4337 9.19393 18.2541L7.50958 18.1127ZM9.08406 14.4655C9.08406 14.468 9.08406 14.4696 9.08237 14.4721L10.6171 15.1567C10.7202 14.9394 10.7743 14.7041 10.7743 14.4655H9.08406ZM19.2257 14.4655C19.2257 14.7041 19.2798 14.9402 19.3829 15.1575L20.9176 14.4721C20.9164 14.4695 20.9158 14.4683 20.9159 14.4655H19.2257ZM15 8.52078C16.1207 8.52078 17.1955 8.95118 17.988 9.7173C18.7805 10.4834 19.2257 11.5225 19.2257 12.6059H20.9159C20.9159 11.0891 20.2927 9.63441 19.1832 8.56184C18.0737 7.48928 16.569 6.88672 15 6.88672V8.52078ZM15 6.88672C13.431 6.88672 11.9263 7.48928 10.8168 8.56184C9.70735 9.63441 9.08406 11.0891 9.08406 12.6059H10.7743C10.7743 11.5225 11.2195 10.4834 12.012 9.7173C12.8045 8.95118 13.8793 8.52078 15 8.52078V6.88672ZM12.6032 22.0133C12.4922 21.9921 12.378 21.9926 12.2672 22.0149C12.1565 22.0372 12.0515 22.0808 11.9584 22.143C11.8654 22.2053 11.7863 22.285 11.7257 22.3773C11.6651 22.4697 11.6244 22.5729 11.6058 22.6808C11.5872 22.7886 11.5913 22.899 11.6177 23.0054C11.644 23.1117 11.6922 23.2119 11.7594 23.2999C11.8266 23.3879 11.9113 23.462 12.0087 23.5177C12.106 23.5735 12.2139 23.6098 12.326 23.6245L12.6032 22.0133ZM17.674 23.6245C17.7861 23.6098 17.894 23.5735 17.9913 23.5177C18.0887 23.462 18.1734 23.3879 18.2406 23.2999C18.3078 23.2119 18.356 23.1117 18.3823 23.0054C18.4087 22.899 18.4128 22.7886 18.3942 22.6808C18.3756 22.5729 18.3349 22.4697 18.2743 22.3773C18.2137 22.285 18.1346 22.2053 18.0416 22.143C17.9485 22.0808 17.8435 22.0372 17.7328 22.0149C17.622 21.9926 17.5078 21.9921 17.3968 22.0133L17.674 23.6245ZM12.326 23.6245L12.9159 23.72L13.1939 22.108L12.6032 22.0133L12.326 23.6245ZM17.0841 23.72L17.674 23.6245L17.3968 22.0133L16.8061 22.108L17.0841 23.72ZM12.9159 23.72C14.296 23.9423 15.7048 23.9423 17.0841 23.72L16.8061 22.108C15.6102 22.3009 14.389 22.3009 13.1939 22.108L12.9159 23.72Z" fill="#FF633E"/>
</svg>
