<svg width="18" height="23" viewBox="0 0 18 23" fill="none" xmlns="http://www.w3.org/2000/svg">
<path d="M15.1803 10.7906L14.2594 11.2156L15.1803 10.7896V10.7906ZM14.0708 8.04834V10.3566H16.0991V8.04834H14.0708ZM3.9292 10.3566V8.04834H1.90088V10.3566H3.9292ZM2.58037 13.7276L3.74056 11.2145L1.89885 10.3647L0.73865 12.8788L2.58037 13.7276ZM14.2594 11.2145L15.4196 13.7287L17.2613 12.8778L16.1012 10.3647L14.2594 11.2145ZM13.8639 16.1606H9V18.1889H13.8629L13.8639 16.1606ZM9 16.1606L4.1371 16.1616V18.1899L9 18.1889V16.1606ZM15.4196 13.7287C15.6265 14.1779 15.7644 14.4771 15.8577 14.7104C15.9511 14.9436 15.9653 15.0318 15.9673 15.0592L17.9885 14.8838C17.9518 14.565 17.8684 14.2534 17.741 13.9589C17.5903 13.5948 17.4304 13.2337 17.2613 12.8778L15.4196 13.7287ZM13.8629 18.1889C14.3345 18.1889 14.729 18.1899 15.0444 18.1737C15.3651 18.1658 15.6829 18.1108 15.9876 18.0104L15.301 16.1018C15.2746 16.1119 15.1894 16.1353 14.9379 16.1484C14.6874 16.1616 14.3568 16.1616 13.8629 16.1616V18.1889ZM15.9673 15.0592C15.9868 15.2822 15.9321 15.5053 15.8115 15.6939C15.691 15.8825 15.5115 16.0259 15.301 16.1018L15.9886 18.0094C16.6202 17.7819 17.1588 17.3529 17.5205 16.7874C17.8823 16.2219 18.0468 15.5526 17.9885 14.8838L15.9673 15.0592ZM0.73865 12.8788C0.569635 13.2347 0.409684 13.5948 0.258952 13.9589C0.131599 14.2534 0.0482231 14.565 0.0114971 14.8838L2.03272 15.0592C2.03475 15.0318 2.04894 14.9436 2.14225 14.7104C2.23555 14.4771 2.37348 14.1769 2.58037 13.7276L0.73865 12.8788ZM4.1371 16.1616C3.64422 16.1616 3.31259 16.1616 3.06209 16.1484C2.81058 16.1353 2.72539 16.1109 2.69902 16.1018L2.01142 18.0094C2.31871 18.12 2.6402 18.1565 2.95459 18.1727C3.27101 18.1899 3.6645 18.1899 4.1371 18.1899V16.1616ZM0.0114971 14.8838C-0.0468009 15.5526 0.117733 16.2219 0.479467 16.7874C0.841201 17.3529 1.37982 17.7819 2.01142 18.0094L2.69902 16.1018C2.48849 16.0259 2.30898 15.8825 2.18846 15.6939C2.06794 15.5053 2.01319 15.2822 2.03272 15.0592L0.0114971 14.8838ZM1.90088 10.3566C1.90088 10.3596 1.90088 10.3616 1.89885 10.3647L3.74056 11.2156C3.86429 10.9458 3.9292 10.6527 3.9292 10.3566H1.90088ZM14.0708 10.3566C14.0708 10.6527 14.1357 10.9458 14.2594 11.2156L16.1012 10.3647C16.0997 10.3615 16.099 10.359 16.0991 10.3556H14.0708V10.3566ZM9 2.97754C10.3449 2.97754 11.6346 3.51178 12.5856 4.46274C13.5366 5.4137 14.0708 6.70348 14.0708 8.04834H16.0991C16.0991 6.16554 15.3512 4.35985 14.0198 3.0285C12.6885 1.69716 10.8828 0.949219 9 0.949219V2.97754ZM9 0.949219C7.1172 0.949219 5.31151 1.69716 3.98016 3.0285C2.64882 4.35985 1.90088 6.16554 1.90088 8.04834H3.9292C3.9292 6.70348 4.46344 5.4137 5.4144 4.46274C6.36536 3.51178 7.65514 2.97754 9 2.97754V0.949219ZM6.12384 19.7254C5.99066 19.6991 5.85355 19.6998 5.72065 19.7275C5.58775 19.7551 5.46175 19.8092 5.35013 19.8865C5.23851 19.9637 5.14354 20.0626 5.07085 20.1773C4.99816 20.2919 4.94923 20.42 4.92696 20.5539C4.90468 20.6878 4.90952 20.8249 4.94119 20.9569C4.97285 21.0889 5.03069 21.2132 5.11129 21.3224C5.19189 21.4317 5.2936 21.5236 5.41039 21.5928C5.52718 21.662 5.65667 21.7071 5.7912 21.7253L6.12384 19.7254ZM12.2088 21.7253C12.3433 21.7071 12.4728 21.662 12.5896 21.5928C12.7064 21.5236 12.8081 21.4317 12.8887 21.3224C12.9693 21.2132 13.0271 21.0889 13.0588 20.9569C13.0905 20.8249 13.0953 20.6878 13.073 20.5539C13.0508 20.42 13.0018 20.2919 12.9291 20.1773C12.8565 20.0626 12.7615 19.9637 12.6499 19.8865C12.5382 19.8092 12.4123 19.7551 12.2794 19.7275C12.1464 19.6998 12.0093 19.6991 11.8762 19.7254L12.2088 21.7253ZM5.7912 21.7253L6.49908 21.844L6.83274 19.843L6.12384 19.7254L5.7912 21.7253ZM11.5009 21.844L12.2088 21.7253L11.8762 19.7254L11.1673 19.843L11.5009 21.844ZM6.49908 21.844C8.1552 22.1198 9.84581 22.1198 11.5009 21.844L11.1673 19.843C9.73222 20.0824 8.26676 20.0824 6.83274 19.843L6.49908 21.844Z" fill="#FF633E"/>
</svg>
