<svg width="24" height="25" viewBox="0 0 24 25" fill="none" xmlns="http://www.w3.org/2000/svg">
<path d="M12 13.625C12.5523 13.625 13 13.1773 13 12.625C13 12.0727 12.5523 11.625 12 11.625C11.4477 11.625 11 12.0727 11 12.625C11 13.1773 11.4477 13.625 12 13.625Z" stroke="black" stroke-width="2" stroke-linecap="round" stroke-linejoin="round"/>
<path d="M12 6.625C12.5523 6.625 13 6.17728 13 5.625C13 5.07272 12.5523 4.625 12 4.625C11.4477 4.625 11 5.07272 11 5.625C11 6.17728 11.4477 6.625 12 6.625Z" stroke="black" stroke-width="2" stroke-linecap="round" stroke-linejoin="round"/>
<path d="M12 20.625C12.5523 20.625 13 20.1773 13 19.625C13 19.0727 12.5523 18.625 12 18.625C11.4477 18.625 11 19.0727 11 19.625C11 20.1773 11.4477 20.625 12 20.625Z" stroke="black" stroke-width="2" stroke-linecap="round" stroke-linejoin="round"/>
</svg>
