<svg width="16" height="16" viewBox="0 0 16 16" fill="none" xmlns="http://www.w3.org/2000/svg">
<rect width="16" height="16" fill="#343434"/>
<path d="M-3826 -19114C-3826 -19115.1 -3825.1 -19116 -3824 -19116H9716C9717.1 -19116 9718 -19115.1 9718 -19114V6955C9718 6956.1 9717.1 6957 9716 6957H-3824C-3825.1 6957 -3826 6956.11 -3826 6955V-19114Z" fill="black"/>
<path d="M-3824 -19115H9716V-19117H-3824V-19115ZM9717 -19114V6955H9719V-19114H9717ZM9716 6956H-3824V6958H9716V6956ZM-3825 6955V-19114H-3827V6955H-3825ZM-3824 6956C-3824.55 6956 -3825 6955.55 -3825 6955H-3827C-3827 6956.66 -3825.66 6958 -3824 6958V6956ZM9717 6955C9717 6955.55 9716.55 6956 9716 6956V6958C9717.66 6958 9719 6956.66 9719 6955H9717ZM9716 -19115C9716.55 -19115 9717 -19114.6 9717 -19114H9719C9719 -19115.7 9717.66 -19117 9716 -19117V-19115ZM-3824 -19117C-3825.66 -19117 -3827 -19115.7 -3827 -19114H-3825C-3825 -19114.6 -3824.55 -19115 -3824 -19115V-19117Z" fill="white" fill-opacity="0.1"/>
<g clip-path="url(#clip0_6689_1009)">
<rect width="375" height="1153" transform="translate(-222 -187)" fill="white"/>
<circle cx="-32" cy="-25" r="47" fill="#FF633E"/>
<circle cx="8" cy="8" r="14" fill="#222222"/>
<g clip-path="url(#clip1_6689_1009)">
<path d="M11.333 2.00004C11.5081 1.82494 11.716 1.68605 11.9447 1.59129C12.1735 1.49653 12.4187 1.44775 12.6663 1.44775C12.914 1.44775 13.1592 1.49653 13.3879 1.59129C13.6167 1.68605 13.8246 1.82494 13.9997 2.00004C14.1748 2.17513 14.3137 2.383 14.4084 2.61178C14.5032 2.84055 14.552 3.08575 14.552 3.33337C14.552 3.58099 14.5032 3.82619 14.4084 4.05497C14.3137 4.28374 14.1748 4.49161 13.9997 4.66671L4.99967 13.6667L1.33301 14.6667L2.33301 11L11.333 2.00004Z" stroke="white" stroke-width="1.5" stroke-linecap="round" stroke-linejoin="round"/>
</g>
</g>
<defs>
<clipPath id="clip0_6689_1009">
<rect width="375" height="1153" fill="white" transform="translate(-222 -187)"/>
</clipPath>
<clipPath id="clip1_6689_1009">
<rect width="16" height="16" fill="white"/>
</clipPath>
</defs>
</svg>
