<svg width="17" height="17" viewBox="0 0 17 17" fill="none" xmlns="http://www.w3.org/2000/svg">
<path d="M8.46808 -0.000976562C8.83196 -0.000976562 9.13278 0.269283 9.18041 0.6201L9.18702 0.71763L9.18817 7.66569H16.1391C16.536 7.66569 16.8578 7.9875 16.8578 8.38444C16.8578 8.74832 16.5874 9.04904 16.2366 9.09667L16.1391 9.10319H9.18817L9.19009 16.0502C9.19018 16.4472 8.86847 16.7692 8.47153 16.7692C8.10765 16.7692 7.80683 16.4989 7.7592 16.1481L7.75259 16.0505L7.75067 9.10319H0.803711C0.40675 9.10319 0.0849609 8.78138 0.0849609 8.38444C0.0849609 8.02056 0.355355 7.71984 0.706181 7.67221L0.803711 7.66569H7.75067L7.74952 0.717917C7.74942 0.320966 8.07114 -0.000976562 8.46808 -0.000976562Z" fill="white"/>
</svg>
