<svg width="16" height="13" viewBox="0 0 16 13" fill="none" xmlns="http://www.w3.org/2000/svg">
<path d="M2.1582 7.83691H0.298828V6.14355H1.77637L0.614258 0.980469H3.1709L4.14209 6.14355H5.52002L6.64062 0.980469H8.94824L10.0688 6.14355H11.4551L12.418 0.980469H14.9746L13.8042 6.14355H15.29V7.83691H13.4224L12.252 13H9.5459L8.4668 7.83691H7.10547L6.02637 13H3.32031L2.1582 7.83691ZM4.73145 9.29785H4.83105L5.14648 7.83691H4.45752L4.73145 9.29785ZM8.11816 6.14355L7.83594 4.79883H7.73633L7.4541 6.14355H8.11816ZM10.7578 9.31445H10.8574L11.1313 7.83691H10.4341L10.7578 9.31445Z" fill="#FF633E"/>
</svg>
